inDegrees=no
num_controls=7
num_derivatives=13
num_iterations=165
num_multipliers=7
num_parameters=0
num_slacks=7
num_states=26
objective=5.638456
objective_accelerations=0.600420
objective_balance=0.124602
objective_effort=0.400028
objective_height=4.451975
objective_ligament=0.061431
solver_duration=1876.032971
status=Solve_Succeeded
success=true
DataType=double
version=3
OpenSimVersion=4.4-2022-07-23-0e9fedc
endheader
time	/jointset/ground_pelvis/pelvis_tilt/value	/jointset/ground_pelvis/pelvis_tx/value	/jointset/ground_pelvis/pelvis_ty/value	/jointset/hip_l/hip_flexion_l/value	/jointset/hip_l/hip_adduction_l/value	/jointset/hip_l/hip_rotation_l/value	/jointset/back/lumbar_extension/value	/jointset/patellofemoral_l/patellar_flexion_l/value	/jointset/knee_l/knee_flexion_l/value	/jointset/knee_l/knee_adduction_l/value	/jointset/knee_l/knee_rotation_l/value	/jointset/ankle_l/ankle_angle_l/value	/jointset/subtalar_l/subtalar_angle_l/value	/jointset/ground_pelvis/pelvis_tilt/speed	/jointset/ground_pelvis/pelvis_tx/speed	/jointset/ground_pelvis/pelvis_ty/speed	/jointset/hip_l/hip_flexion_l/speed	/jointset/hip_l/hip_adduction_l/speed	/jointset/hip_l/hip_rotation_l/speed	/jointset/back/lumbar_extension/speed	/jointset/patellofemoral_l/patellar_flexion_l/speed	/jointset/knee_l/knee_flexion_l/speed	/jointset/knee_l/knee_adduction_l/speed	/jointset/knee_l/knee_rotation_l/speed	/jointset/ankle_l/ankle_angle_l/speed	/jointset/subtalar_l/subtalar_angle_l/speed	/forceset/tau_hip_flexion_l	/forceset/tau_hip_adduction_l	/forceset/tau_hip_rotation_l	/forceset/tau_knee_flexion_l	/forceset/tau_ankle_angle_l	/forceset/tau_subtalar_angle_l	/forceset/tau_lumbar_extension	lambda_cid13_p0	lambda_cid13_p1	lambda_cid13_p2	lambda_cid13_p3	lambda_cid13_p4	lambda_cid13_p5	lambda_cid14_p0	/jointset/ground_pelvis/pelvis_tilt/accel	/jointset/ground_pelvis/pelvis_tx/accel	/jointset/ground_pelvis/pelvis_ty/accel	/jointset/hip_l/hip_flexion_l/accel	/jointset/hip_l/hip_adduction_l/accel	/jointset/hip_l/hip_rotation_l/accel	/jointset/back/lumbar_extension/accel	/jointset/patellofemoral_l/patellar_flexion_l/accel	/jointset/knee_l/knee_flexion_l/accel	/jointset/knee_l/knee_adduction_l/accel	/jointset/knee_l/knee_rotation_l/accel	/jointset/ankle_l/ankle_angle_l/accel	/jointset/subtalar_l/subtalar_angle_l/accel	gamma_cid13_p0	gamma_cid13_p1	gamma_cid13_p2	gamma_cid13_p3	gamma_cid13_p4	gamma_cid13_p5	gamma_cid14_p0
0	-0.1601683203296468	0.0585749647315665	0.8979987718431189	0.3774920279260975	-0.2591366709039905	-0.2729762295302694	-0.0126506700172305	0.03223623128433696	0.03223623128433527	-0.1745329251994329	0.1745328948939495	-0.04231376238535053	-0.009261029963017781	0	0	0	0	0	0	0	0	0	0	0	0	0	0.1646739838006495	-0.1044492726576653	-0.05811210391536734	-0.3520334003541361	0.393879429374746	-0.04691917380014236	-0.09967532496834645	84.52495663532508	-0.0006925523068096219	5.969088733710887	-34.92738114415524	-593.2890111843368	-81.3529526322543	-39.07500208618317	-3.601755548111199	-1.404746124424518	-0.9782634160553898	11.02884795484484	-1.293825405291474	3.275591966460933	-5.407989658497963	9.447870668058906	9.447870668059171	0.1126401721537532	0.04570969165502874	2.187316679759105	-0.8152463296022326	-3.893076446792611e-08	8.317006766499507e-08	9.451430248252416e-08	7.924363909180132e-09	3.289496538401028e-08	-3.405252151921126e-08	-1.384003633257998e-08
0.01	-0.1603421055933846	0.05850562200629572	0.8979510000424482	0.3780296706745142	-0.2592007846159551	-0.2728128601401045	-0.01292190221624237	0.03269816075393899	0.03269816075395086	-0.1745287431297597	0.1745320966310701	-0.04220753896048243	-0.009301937480294297	-0.03456588653567127	-0.01381106749080459	-0.009518579253902875	0.1070373855838775	-0.01274458567607305	0.03252824100017854	-0.0538869301869182	0.09199859636582479	0.09199859636582025	0.0008627714773070567	-0.0001518884310539102	0.02116200304126122	-0.008123763102118224	0.1580828557496899	-0.1126641892841967	-0.05665929644758003	-0.3433692439055401	0.3797243055075804	-0.03323477619038628	-0.0945024907404938	80.46596664141397	-4.993298003440506	6.491101502663434	-32.80062247471365	-594.3093795863298	-90.76802987950607	-39.08817203883375	-3.355338442541933	-1.360663842058886	-0.9332814690255585	10.4675015531938	-1.253077403650914	3.219583329237205	-5.32511825649464	9.017762255471863	9.017762255471187	0.07682242611129904	-0.04448312868926684	2.068236955234939	-0.8023038311586701	-6.429402262563344e-08	1.059501705170072e-07	1.238855636214143e-07	2.969197051428357e-08	-9.135602795370532e-08	-2.347536759176228e-08	-1.938647028629737e-08
0.02	-0.1608558163697281	0.05829989324998679	0.8978091171914451	0.3796229508173792	-0.2593900046356566	-0.2723285797074476	-0.01372121842866288	0.03406845781413933	0.03406845781413961	-0.1745151795539762	0.1745300104801997	-0.04189217653741641	-0.009422355134720404	-0.06798510252121615	-0.02727720620762861	-0.01882221006649742	0.2111274788891411	-0.02502126154757011	0.06418220849799404	-0.1056168026820715	0.1816735181167541	0.1816735181167504	0.001874614578298334	-0.0002575775902523777	0.0418277996395351	-0.01590202742991842	0.1514917276987467	-0.1208791059107415	-0.05520648897991202	-0.3347050874569293	0.3655691816404082	-0.01955037858064331	-0.08932965651261629	76.48595290668067	-10.00138591573063	7.01747830230209	-30.85613729749177	-594.1562492674263	-100.0711616004763	-39.12712864583095	-3.372421438085914	-1.335760369628414	-0.935273727793722	10.43938949912207	-1.200243444376248	3.100737265988302	-4.976578120144984	8.983135745079823	8.983135745081169	0.1424544968906492	0.05494954602614154	2.088075391161635	-0.7461465747386017	-8.965728078334078e-08	1.287302733690194e-07	1.532568247603045e-07	5.145957711938702e-08	-2.156070212914209e-07	-1.289821366431331e-08	-2.493290424001476e-08
0.03	-0.1616982280794289	0.05796113970416349	0.8975750470173433	0.3822428685223366	-0.2596995538235887	-0.2715321380377583	-0.01502691370845671	0.03632392114156361	0.03632392114155231	-0.1744909100986196	0.1745271155139192	-0.04137279372134587	-0.009618807424734746	-0.1003038464539353	-0.04042326828778879	-0.02797385087339314	0.3123691140045353	-0.03680608026339512	0.09495996575405109	-0.1551758568066442	0.2690164129841057	0.2690164129841059	0.00297619879699279	-0.0003181226644048799	0.06194448956663737	-0.02333492982206067	0.1441103551615029	-0.1130023782571064	-0.0538177770939671	-0.3255837784736593	0.354072378327477	-0.02167886511091485	-0.0836446754217173	72.70869656519119	-8.592459941377456	6.994855320577483	-28.53582566860406	-594.1288383000218	-95.99341049150362	-39.19058555524736	-3.132600298177754	-1.296483546974495	-0.9024567985009103	9.89349541159415	-1.15525482380593	3.044350833229978	-4.893609588133749	8.549461209115556	8.54946120911524	0.09358574393191439	-0.03608078445334315	1.957818207744804	-0.7338737249654602	-1.101707102977272e-07	1.372361487647239e-07	1.86160622248302e-07	6.79881693664712e-08	-3.139467462742632e-07	-1.050755677030077e-08	-3.129358582293188e-08
